<svg xmlns="http://www.w3.org/2000/svg" xml:space="preserve" style="enable-background:new 0 0 100 100" viewBox="0 0 100 125"><switch><g><path d="M5273.1 2400.1v-2c0-2.8-5-4-9.7-4s-9.7 1.3-9.7 4v2c0 1.8.7 3.6 2 4.9l5 4.9c.3.3.4.6.4 1v6.4c0 .4.2.7.6.8l2.9.9c.5.1 1-.2 1-.8v-7.2c0-.4.2-.7.4-1l5.1-5c1.3-1.3 2-3.1 2-4.9zm-9.7-.1c-4.8 0-7.4-1.3-7.5-1.8.1-.5 2.7-1.8 7.5-1.8s7.3 1.3 7.5 1.8c-.2.5-2.7 1.8-7.5 1.8z"/><path d="M5268.4 2410.3c-.6 0-1 .4-1 1s.4 1 1 1h4.3c.6 0 1-.4 1-1s-.4-1-1-1h-4.3zM5272.7 2413.7h-4.3c-.6 0-1 .4-1 1s.4 1 1 1h4.3c.6 0 1-.4 1-1s-.4-1-1-1zM5272.7 2417h-4.3c-.6 0-1 .4-1 1s.4 1 1 1h4.3c.6 0 1-.4 1-1 0-.5-.4-1-1-1zM50 2.5c-11.7 0-21.2 9.5-21.2 21.2v20.2c0 11.7 9.5 21.2 21.2 21.2s21.2-9.5 21.2-21.2V23.7C71.2 12 61.7 2.5 50 2.5zm15.2 41.4c0 8.4-6.8 15.2-15.2 15.2s-15.2-6.8-15.2-15.2V23.7c0-8.4 6.8-15.2 15.2-15.2s15.2 6.8 15.2 15.2v20.2z"/><path d="M50 15.1c-1.7 0-3 1.3-3 3v8.1c0 1.7 1.3 3 3 3s3-1.3 3-3v-8.1c0-1.6-1.3-3-3-3zM56.2 69.6 50 75.9l-6.2-6.2c-1.2-1.2-3.1-1.2-4.3 0-1.2 1.2-1.2 3.1 0 4.3l8.4 8.4c.6.6 1.4.9 2.1.9s1.5-.3 2.1-.9l8.4-8.4c1.2-1.2 1.2-3.1 0-4.3-1.2-1.2-3.1-1.2-4.3-.1z"/><path d="M56.2 84 50 90.2 43.8 84c-1.2-1.2-3.1-1.2-4.3 0-1.2 1.2-1.2 3.1 0 4.3l8.4 8.4c.6.6 1.4.9 2.1.9s1.5-.3 2.1-.9l8.4-8.4c1.2-1.2 1.2-3.1 0-4.3-1.2-1.2-3.1-1.2-4.3 0z"/></g></switch><text y="115" font-family="'Helvetica Neue', Helvetica, Arial-Unicode, Arial, Sans-serif" font-size="5" font-weight="bold">Created by Adrien Coquet</text></svg>